<svg width="24" height="36" viewBox="0 0 24 36" fill="none" xmlns="http://www.w3.org/2000/svg">
<path d="M12 8C12.2652 8 12.5196 8.10536 12.7071 8.29289C12.8946 8.48043 13 8.73478 13 9V13C13 13.2652 12.8946 13.5196 12.7071 13.7071C12.5196 13.8946 12.2652 14 12 14C11.7348 14 11.4804 13.8946 11.2929 13.7071C11.1054 13.5196 11 13.2652 11 13V9C11 8.73478 11.1054 8.48043 11.2929 8.29289C11.4804 8.10536 11.7348 8 12 8ZM20 24C20 26.1217 19.1571 28.1566 17.6569 29.6569C16.1566 31.1571 14.1217 32 12 32C9.87827 32 7.84344 31.1571 6.34315 29.6569C4.84285 28.1566 4 26.1217 4 24V12C4 9.87827 4.84285 7.84344 6.34315 6.34315C7.84344 4.84285 9.87827 4 12 4C14.1217 4 16.1566 4.84285 17.6569 6.34315C19.1571 7.84344 20 9.87827 20 12V24ZM12 2C9.34784 2 6.8043 3.05357 4.92893 4.92893C3.05357 6.8043 2 9.34784 2 12V24C2 26.6522 3.05357 29.1957 4.92893 31.0711C6.8043 32.9464 9.34784 34 12 34C14.6522 34 17.1957 32.9464 19.0711 31.0711C20.9464 29.1957 22 26.6522 22 24V12C22 9.34784 20.9464 6.8043 19.0711 4.92893C17.1957 3.05357 14.6522 2 12 2Z" fill="#4D4D4D"/>
<path d="M13.0607 7.93934C12.7794 7.65804 12.3978 7.5 12 7.5C11.6022 7.5 11.2206 7.65804 10.9393 7.93934C10.658 8.22064 10.5 8.60217 10.5 9V13C10.5 13.3978 10.658 13.7794 10.9393 14.0607C11.2206 14.342 11.6022 14.5 12 14.5C12.3978 14.5 12.7794 14.342 13.0607 14.0607C13.342 13.7794 13.5 13.3978 13.5 13V9C13.5 8.60218 13.342 8.22065 13.0607 7.93934ZM19.5 24C19.5 25.9891 18.7098 27.8968 17.3033 29.3033C15.8968 30.7098 13.9891 31.5 12 31.5C10.0109 31.5 8.10322 30.7098 6.6967 29.3033C5.29018 27.8968 4.5 25.9891 4.5 24V12C4.5 10.0109 5.29018 8.10322 6.6967 6.6967C8.10322 5.29018 10.0109 4.5 12 4.5C13.9891 4.5 15.8968 5.29018 17.3033 6.6967C18.7098 8.10322 19.5 10.0109 19.5 12V24ZM12 1.5C9.21523 1.5 6.54451 2.60625 4.57538 4.57538C2.60625 6.54451 1.5 9.21523 1.5 12V24C1.5 26.7848 2.60625 29.4555 4.57538 31.4246C6.54451 33.3938 9.21523 34.5 12 34.5C14.7848 34.5 17.4555 33.3938 19.4246 31.4246C21.3938 29.4555 22.5 26.7848 22.5 24V12C22.5 9.21523 21.3938 6.54451 19.4246 4.57538C17.4555 2.60625 14.7848 1.5 12 1.5Z" stroke="white" stroke-opacity="0.5"/>
</svg>
