<svg width="27" height="21" viewBox="0 0 27 21" fill="none" xmlns="http://www.w3.org/2000/svg">
<g clip-path="url(#clip0_10_11)">
<path d="M18.852 18.2757C18.4913 18.5717 18.0897 18.772 17.6471 18.8764C17.2046 18.9809 16.7575 18.9813 16.3059 18.8776L7.69977 16.9822L7.74974 16.2943C7.78536 15.8123 7.96239 15.3975 8.28083 15.0499C8.59926 14.7023 8.99238 14.4982 9.46018 14.4377L11.6039 14.1337L6.40176 7.79513C6.22201 7.57611 6.14542 7.33173 6.17198 7.06197C6.19854 6.79222 6.32133 6.56747 6.54034 6.38772C6.75936 6.20797 7.00696 6.12873 7.28316 6.15001C7.55935 6.17128 7.78733 6.29143 7.96708 6.51044L15.4531 15.6318L12.627 16.0107L16.7462 16.9315C16.8975 16.9582 17.0459 16.9551 17.1912 16.922C17.3366 16.889 17.4672 16.8248 17.5832 16.7297L21.854 13.2246C22.2791 12.8756 22.5188 12.4256 22.5731 11.8743C22.6274 11.3231 22.4801 10.8349 22.1312 10.4097L19.5935 7.31776C19.4138 7.09875 19.189 6.97596 18.9193 6.9494C18.6495 6.92284 18.4051 6.99943 18.1861 7.17918L13.954 10.6526L12.6851 9.10659L16.9173 5.63319C17.5614 5.10451 18.294 4.88059 19.115 4.96143C19.936 5.04228 20.6108 5.40478 21.1395 6.04894L23.6771 9.14092C24.375 9.99121 24.6696 10.9676 24.5611 12.0701C24.4525 13.1725 23.9731 14.0727 23.1228 14.7705L18.852 18.2757ZM5.41758 11.837C5.01748 11.6911 4.63753 11.4908 4.27772 11.2363C3.91791 10.9818 3.59527 10.6806 3.30978 10.3328C2.43218 9.26346 2.06094 8.0427 2.19605 6.67048C2.33117 5.29825 2.93339 4.17334 4.0027 3.29574C5.07201 2.41814 6.29277 2.04689 7.66499 2.18201C9.03722 2.31713 10.1621 2.91935 11.0397 3.98866C11.3252 4.3365 11.5577 4.7117 11.7371 5.11423C11.9166 5.51677 12.0389 5.92848 12.104 6.34937L10.1362 6.67074C10.0912 6.40578 10.0178 6.15876 9.91604 5.92965C9.81426 5.70055 9.67349 5.47649 9.49374 5.25748C8.96507 4.61332 8.29023 4.25081 7.46925 4.16997C6.64826 4.08913 5.91568 4.31305 5.27152 4.84173C4.62736 5.37041 4.26486 6.04524 4.18402 6.86623C4.10318 7.68721 4.32709 8.41979 4.85577 9.06395C5.03552 9.28297 5.22782 9.46473 5.43267 9.60924C5.63752 9.75376 5.86549 9.8739 6.11659 9.96968L5.41758 11.837Z" fill="#4D4D4D"/>
<path d="M6.01526 8.11233L10.6533 13.7635L9.39282 13.9423C8.80949 14.0185 8.30959 14.2783 7.91215 14.7121C7.51576 15.1448 7.29478 15.6665 7.2511 16.2575L7.25105 16.2581L7.20109 16.9459L7.16974 17.3774L7.59223 17.4704L16.194 19.3649C16.1948 19.3651 16.1955 19.3653 16.1963 19.3654C16.7203 19.4854 17.2442 19.4853 17.762 19.3631C18.2807 19.2406 18.7512 19.0053 19.1692 18.6622L23.44 15.157C24.3936 14.3744 24.9372 13.3525 25.0587 12.1191C25.1801 10.8857 24.8463 9.77733 24.0636 8.82371L21.526 5.73173C20.9141 4.98624 20.1185 4.55782 19.164 4.46384C18.2095 4.36986 17.3456 4.63485 16.6001 5.24669L12.3679 8.7201L11.9814 9.0373L12.2986 9.4238L13.5675 10.9698L13.8847 11.3563L14.2712 11.0391L18.5033 7.56568C18.625 7.46581 18.739 7.43407 18.8703 7.44699C19.0015 7.45992 19.1071 7.51329 19.207 7.63497L21.7447 10.727C22.0088 11.0488 22.1169 11.405 22.0755 11.8253C22.0341 12.2456 21.8586 12.5739 21.5368 12.8381L17.266 16.3432C17.2096 16.3894 17.1495 16.4187 17.0804 16.4345C17.0049 16.4516 16.9269 16.4544 16.8429 16.4407L15.4703 16.134L15.5196 16.1274L16.4088 16.0081L15.8396 15.3146L8.35357 6.19324C8.08958 5.87158 7.73711 5.68349 7.32156 5.65148C6.91359 5.62006 6.53928 5.74176 6.22314 6.00122C5.90679 6.26086 5.71458 6.60474 5.67439 7.01298C5.63419 7.42121 5.75563 7.79598 6.01526 8.11233ZM5.24621 12.3067L5.71202 12.4767L5.88585 12.0123L6.58485 10.145L6.75905 9.6796L6.29478 9.50251C6.07988 9.42054 5.8893 9.31948 5.7209 9.20068C5.55717 9.08518 5.39715 8.93547 5.24227 8.74674C4.79676 8.20392 4.61391 7.60274 4.68161 6.91522C4.74931 6.2277 5.0459 5.67374 5.58873 5.22823C6.13155 4.78272 6.73273 4.59987 7.42025 4.66757C8.10777 4.73527 8.66174 5.03186 9.10724 5.57469C9.26213 5.76341 9.37776 5.94955 9.45911 6.13266C9.54278 6.321 9.60473 6.52763 9.64321 6.75439L9.72635 7.24429L10.2167 7.1642L12.1846 6.84283L12.6739 6.76292L12.5981 6.2729C12.526 5.80666 12.3907 5.3523 12.1938 4.91066C11.9958 4.46642 11.7395 4.05313 11.4262 3.67145C10.4648 2.50001 9.21866 1.83258 7.71399 1.68442C6.20932 1.53626 4.85693 1.94782 3.68549 2.90924C2.51405 3.87066 1.84662 5.11681 1.69846 6.62148C1.5503 8.12615 1.96186 9.47854 2.92328 10.65C3.23654 11.0317 3.5919 11.3636 3.98898 11.6445C4.38374 11.9237 4.803 12.145 5.24621 12.3067Z" stroke="white" stroke-opacity="0.5"/>
</g>
<defs>
<clipPath id="clip0_10_11">
<rect width="27" height="21" fill="white"/>
</clipPath>
</defs>
</svg>
